# xmcd
#
# Track frame offsets:
# 182
# 25345
# 38895
# 53607
# 71682
# 80407
# 92435
# 107732
# 121682
# 136145
# 152957
# 172520
#
# Disc length: 2485 seconds
#
#
# Revision: 0
# Processed by: cddbd v1.5.1PL0 Copyright (c) Steve Scherf et al.
# Submitted via: FreeRIP 2.93 
#
DISCID=8909b30c
DTITLE=Dobro - Country Rock Band
DYEAR=1997
DGENRE=Country
TTITLE0=The river
TTITLE1=Get in the wind
TTITLE2=Keepin' the road hot
TTITLE3=Cosmic cowboy
TTITLE4=Cosmic cowboy (breakdown)
TTITLE5=Mountain pass
TTITLE6=Comin' home
TTITLE7=Headin' west
TTITLE8=Rocky top
TTITLE9=I can feel your love
TTITLE10=Workin' man (nowhere to go)
TTITLE11=Honky tonk blues
EXTD=
EXTT0=
EXTT1=
EXTT2=
EXTT3=
EXTT4=
EXTT5=
EXTT6=
EXTT7=
EXTT8=
EXTT9=
EXTT10=
EXTT11=
PLAYORDER=
